<svg xmlns="http://www.w3.org/2000/svg" xmlns:xlink="http://www.w3.org/1999/xlink" preserveAspectRatio="xMidYMid" width="672" height="5" viewBox="0 0 672 5">
  <defs>
    <style>

      .cls-2 {
        fill: #ffffff;
      }
    </style>
  </defs>
  <path d="M0.000,5.000 C0.000,5.000 0.000,4.000 0.000,4.000 C0.000,4.000 672.000,4.000 672.000,4.000 C672.000,4.000 672.000,5.000 672.000,5.000 C672.000,5.000 0.000,5.000 0.000,5.000 ZM659.823,0.014 C662.553,0.014 664.769,1.301 665.006,3.994 C665.006,3.994 654.640,3.994 654.640,3.994 C654.877,1.301 657.093,0.014 659.823,0.014 ZM635.836,0.014 C638.567,0.014 640.782,1.301 641.019,3.994 C641.019,3.994 630.653,3.994 630.653,3.994 C630.890,1.301 633.106,0.014 635.836,0.014 ZM611.850,0.014 C614.580,0.014 616.796,1.301 617.033,3.994 C617.033,3.994 606.667,3.994 606.667,3.994 C606.903,1.301 609.119,0.014 611.850,0.014 ZM587.863,0.014 C590.593,0.014 592.809,1.301 593.046,3.994 C593.046,3.994 582.680,3.994 582.680,3.994 C582.917,1.301 585.133,0.014 587.863,0.014 ZM563.876,0.014 C566.607,0.014 568.822,1.301 569.059,3.994 C569.059,3.994 558.693,3.994 558.693,3.994 C558.930,1.301 561.146,0.014 563.876,0.014 ZM539.890,0.014 C542.620,0.014 544.836,1.301 545.073,3.994 C545.073,3.994 534.707,3.994 534.707,3.994 C534.943,1.301 537.159,0.014 539.890,0.014 ZM515.903,0.014 C518.633,0.014 520.849,1.301 521.086,3.994 C521.086,3.994 510.720,3.994 510.720,3.994 C510.957,1.301 513.173,0.014 515.903,0.014 ZM491.916,0.014 C494.647,0.014 496.862,1.301 497.099,3.994 C497.099,3.994 486.733,3.994 486.733,3.994 C486.970,1.301 489.186,0.014 491.916,0.014 ZM467.930,0.014 C470.660,0.014 472.876,1.301 473.113,3.994 C473.113,3.994 462.747,3.994 462.747,3.994 C462.983,1.301 465.199,0.014 467.930,0.014 ZM443.943,0.014 C446.673,0.014 448.889,1.301 449.126,3.994 C449.126,3.994 438.760,3.994 438.760,3.994 C438.997,1.301 441.213,0.014 443.943,0.014 ZM419.956,0.014 C422.686,0.014 424.902,1.301 425.139,3.994 C425.139,3.994 414.773,3.994 414.773,3.994 C415.010,1.301 417.226,0.014 419.956,0.014 ZM395.970,0.014 C398.700,0.014 400.916,1.301 401.153,3.994 C401.153,3.994 390.786,3.994 390.786,3.994 C391.023,1.301 393.239,0.014 395.970,0.014 ZM371.983,0.014 C374.713,0.014 376.929,1.301 377.166,3.994 C377.166,3.994 366.800,3.994 366.800,3.994 C367.037,1.301 369.253,0.014 371.983,0.014 ZM347.996,0.014 C350.726,0.014 352.942,1.301 353.179,3.994 C353.179,3.994 342.813,3.994 342.813,3.994 C343.050,1.301 345.266,0.014 347.996,0.014 ZM324.009,0.014 C326.740,0.014 328.956,1.301 329.193,3.994 C329.193,3.994 318.826,3.994 318.826,3.994 C319.063,1.301 321.279,0.014 324.009,0.014 ZM300.023,0.014 C302.753,0.014 304.969,1.301 305.206,3.994 C305.206,3.994 294.840,3.994 294.840,3.994 C295.077,1.301 297.293,0.014 300.023,0.014 ZM276.036,0.014 C278.766,0.014 280.982,1.301 281.219,3.994 C281.219,3.994 270.853,3.994 270.853,3.994 C271.090,1.301 273.306,0.014 276.036,0.014 ZM252.049,0.014 C254.780,0.014 256.996,1.301 257.232,3.994 C257.232,3.994 246.866,3.994 246.866,3.994 C247.103,1.301 249.319,0.014 252.049,0.014 ZM228.063,0.014 C230.793,0.014 233.009,1.301 233.246,3.994 C233.246,3.994 222.880,3.994 222.880,3.994 C223.117,1.301 225.332,0.014 228.063,0.014 ZM204.076,0.014 C206.806,0.014 209.022,1.301 209.259,3.994 C209.259,3.994 198.893,3.994 198.893,3.994 C199.130,1.301 201.346,0.014 204.076,0.014 ZM180.089,0.014 C182.820,0.014 185.036,1.301 185.272,3.994 C185.272,3.994 174.906,3.994 174.906,3.994 C175.143,1.301 177.359,0.014 180.089,0.014 ZM156.103,0.014 C158.833,0.014 161.049,1.301 161.286,3.994 C161.286,3.994 150.920,3.994 150.920,3.994 C151.157,1.301 153.372,0.014 156.103,0.014 ZM132.116,0.014 C134.846,0.014 137.062,1.301 137.299,3.994 C137.299,3.994 126.933,3.994 126.933,3.994 C127.170,1.301 129.386,0.014 132.116,0.014 ZM108.129,0.014 C110.860,0.014 113.076,1.301 113.312,3.994 C113.312,3.994 102.946,3.994 102.946,3.994 C103.183,1.301 105.399,0.014 108.129,0.014 ZM84.143,0.014 C86.873,0.014 89.089,1.301 89.326,3.994 C89.326,3.994 78.960,3.994 78.960,3.994 C79.197,1.301 81.412,0.014 84.143,0.014 ZM60.156,0.014 C62.886,0.014 65.102,1.301 65.339,3.994 C65.339,3.994 54.973,3.994 54.973,3.994 C55.210,1.301 57.426,0.014 60.156,0.014 ZM36.169,0.014 C38.900,0.014 41.116,1.301 41.352,3.994 C41.352,3.994 30.986,3.994 30.986,3.994 C31.223,1.301 33.439,0.014 36.169,0.014 ZM12.183,0.014 C14.913,0.014 17.129,1.301 17.366,3.994 C17.366,3.994 7.000,3.994 7.000,3.994 C7.237,1.301 9.452,0.014 12.183,0.014 Z" id="path-1" class="cls-2" fill-rule="evenodd"/>
</svg>